PathFileType	4	(X/Y/Z)	/home/nbianco/projects/addbio/data/HamnerRunning2013/Processed/subject10//results/MarkerData/run400.trc
DataRate	CameraRate	NumFrames	NumMarkers	Units	OrigDataRate	OrigDataStartFrame	OrigNumFrames
100	100	8	42	m	100	52	210
Frame#	Time	C7			CLAV			LACR			LASI			LCAL			LFAradius			LFAsuperior			LFAulna			LLEL			LMEL			LMT5			LPSI			LTB1			LTB2			LTB3			LTH1			LTH2			LTH3			LTOE			LUA1			LUA2			LUA3			RACR			RASI			RCAL			RFAradius			RFAsuperior			RFAulna			RLEL			RMEL			RMT5			RPSI			RTB1			RTB2			RTB3			RTH1			RTH2			RTH3			RTOE			RUA1			RUA2			RUA3		
		X1	Y1	Z1	X2	Y2	Z2	X3	Y3	Z3	X4	Y4	Z4	X5	Y5	Z5	X6	Y6	Z6	X7	Y7	Z7	X8	Y8	Z8	X9	Y9	Z9	X10	Y10	Z10	X11	Y11	Z11	X12	Y12	Z12	X13	Y13	Z13	X14	Y14	Z14	X15	Y15	Z15	X16	Y16	Z16	X17	Y17	Z17	X18	Y18	Z18	X19	Y19	Z19	X20	Y20	Z20	X21	Y21	Z21	X22	Y22	Z22	X23	Y23	Z23	X24	Y24	Z24	X25	Y25	Z25	X26	Y26	Z26	X27	Y27	Z27	X28	Y28	Z28	X29	Y29	Z29	X30	Y30	Z30	X31	Y31	Z31	X32	Y32	Z32	X33	Y33	Z33	X34	Y34	Z34	X35	Y35	Z35	X36	Y36	Z36	X37	Y37	Z37	X38	Y38	Z38	X39	Y39	Z39	X40	Y40	Z40	X41	Y41	Z41	X42	Y42	Z42

53	1.29	0.871496	1.45747	-0.342182	1.00134	1.34618	-0.313762	0.930692	1.41812	-0.490575	0.900218	0.942734	-0.445056	0.545787	0.126577	-0.302508	1.06082	1.10616	-0.511551	0.97035	1.14438	-0.617252	1.07539	1.07621	-0.571235	0.86118	1.13665	-0.667797	0.829049	1.10201	-0.609289	0.706572	0.0495716	-0.397637	0.740715	1.00048	-0.374882	0.836288	0.338057	-0.347576	0.751161	0.285968	-0.398971	0.710427	0.192284	-0.320281	0.856975	0.744193	-0.483595	0.90944	0.640411	-0.457094	0.849578	0.533456	-0.43211	0.75801	0.0651528	-0.29604	0.885003	1.30759	-0.582268	0.831704	1.24109	-0.560178	0.875646	1.2152	-0.629683	0.907361	1.42927	-0.190042	0.902241	0.949854	-0.202691	0.657205	0.558535	-0.265069	0.853452	1.05472	-0.0798228	0.758207	1.13954	-0.0233163	0.798308	1.0158	-0.0540429	0.676035	1.22408	-0.035512	0.650816	1.20563	-0.10618	0.623322	0.385478	-0.166355	0.73634	0.995993	-0.276278	0.959721	0.475927	-0.234181	0.877396	0.497485	-0.181891	0.771328	0.47023	-0.24467	0.928434	0.737084	-0.140656	1.02826	0.698423	-0.148308	1.02858	0.598242	-0.155644	0.645099	0.337853	-0.267234	0.815685	1.35161	-0.0984391	0.735877	1.32221	-0.136402	0.732637	1.26567	-0.0611142
54	1.3	0.870341	1.46153	-0.341308	1.00058	1.35099	-0.312118	0.932161	1.42403	-0.488915	0.898103	0.945487	-0.446363	0.509357	0.135422	-0.305499	1.07136	1.12279	-0.505045	0.982286	1.15403	-0.614236	1.08932	1.091	-0.562292	0.87526	1.14066	-0.667892	0.842729	1.10522	-0.60961	0.66567	0.0485451	-0.398292	0.739911	1.00434	-0.37375	0.80318	0.33887	-0.350273	0.716766	0.290274	-0.401184	0.674693	0.196689	-0.32329	0.847258	0.745912	-0.483004	0.892632	0.638281	-0.456699	0.824298	0.53505	-0.432852	0.718012	0.064856	-0.296704	0.893224	1.31323	-0.582804	0.839443	1.24636	-0.565013	0.886765	1.2196	-0.629738	0.904475	1.43348	-0.189584	0.904458	0.955587	-0.20468	0.674186	0.535734	-0.265541	0.837511	1.06308	-0.0815074	0.742502	1.14943	-0.028016	0.779875	1.02491	-0.0600588	0.663336	1.23644	-0.041733	0.640024	1.21924	-0.113144	0.661428	0.359192	-0.167996	0.736933	1.00072	-0.27507	0.985413	0.485206	-0.234907	0.90113	0.499038	-0.183628	0.798652	0.460447	-0.246507	0.937932	0.750131	-0.140465	1.03947	0.717258	-0.149967	1.045	0.616274	-0.157146	0.69039	0.315497	-0.269906	0.808433	1.35985	-0.100209	0.72967	1.33259	-0.140972	0.721705	1.27649	-0.0654789
55	1.31	0.869714	1.46647	-0.340392	1.00023	1.35664	-0.310319	0.933888	1.43073	-0.48688	0.896518	0.94825	-0.447654	0.474816	0.146193	-0.309011	1.07989	1.14028	-0.49811	0.992922	1.16443	-0.61058	1.10117	1.10655	-0.552851	0.888527	1.14599	-0.667579	0.855036	1.11013	-0.609564	0.625047	0.0474268	-0.398865	0.739741	1.00846	-0.37237	0.769894	0.34259	-0.352227	0.682751	0.297341	-0.404352	0.639897	0.203089	-0.326172	0.836608	0.74877	-0.482359	0.874761	0.638091	-0.457171	0.799417	0.539023	-0.433892	0.67826	0.0641148	-0.297284	0.899885	1.31976	-0.582324	0.845857	1.25271	-0.569673	0.897735	1.2254	-0.629376	0.901993	1.43836	-0.189117	0.907354	0.961248	-0.206736	0.693055	0.510421	-0.266373	0.822909	1.07237	-0.0842616	0.728329	1.16019	-0.033046	0.763613	1.03524	-0.0662316	0.652116	1.24938	-0.0480272	0.630941	1.23347	-0.12034	0.702111	0.33261	-0.17049	0.737915	1.00608	-0.273632	1.00952	0.494097	-0.23545	0.923996	0.499795	-0.185563	0.826321	0.449653	-0.248078	0.946098	0.763333	-0.140268	1.04882	0.735773	-0.151508	1.05896	0.634183	-0.158713	0.737796	0.29417	-0.273167	0.802144	1.36898	-0.102157	0.724508	1.34345	-0.145596	0.712208	1.28789	-0.0699645
56	1.32	0.869991	1.47223	-0.339737	1.00016	1.36301	-0.30831	0.935678	1.43796	-0.484611	0.895328	0.951083	-0.44915	0.443176	0.15886	-0.312608	1.0864	1.15803	-0.490533	1.00226	1.17523	-0.606344	1.11114	1.12258	-0.543399	0.900883	1.15213	-0.666779	0.865888	1.11612	-0.6093	0.584931	0.0464153	-0.399384	0.740287	1.01304	-0.371009	0.738017	0.349168	-0.354716	0.650195	0.30684	-0.408385	0.607062	0.211347	-0.329256	0.825331	0.753368	-0.481823	0.856836	0.640798	-0.458643	0.775899	0.545659	-0.435596	0.638879	0.0629922	-0.297753	0.905074	1.32681	-0.581331	0.851463	1.25979	-0.573176	0.908316	1.2323	-0.628832	0.899928	1.44392	-0.188573	0.91046	0.967031	-0.208594	0.714449	0.483149	-0.267695	0.809707	1.08209	-0.0876641	0.71573	1.17145	-0.0382719	0.749152	1.04601	-0.0722718	0.642429	1.26259	-0.0544537	0.623391	1.24789	-0.127732	0.745343	0.306558	-0.173786	0.739244	1.01234	-0.272124	1.03208	0.502202	-0.236119	0.946055	0.499427	-0.187579	0.854469	0.438067	-0.249306	0.952992	0.776141	-0.139957	1.05643	0.753187	-0.152811	1.07061	0.651282	-0.160259	0.78698	0.274353	-0.276483	0.797061	1.3787	-0.104245	0.720621	1.35458	-0.150362	0.704283	1.29954	-0.0746048
57	1.33	0.870779	1.47848	-0.339283	1.0002	1.36992	-0.306139	0.937375	1.44549	-0.482362	0.894637	0.954388	-0.450664	0.415342	0.173321	-0.316318	1.09107	1.17587	-0.482809	1.01035	1.1863	-0.60197	1.11937	1.13894	-0.53428	0.912149	1.1587	-0.665413	0.875391	1.1226	-0.60882	0.545277	0.0457202	-0.399878	0.741572	1.01816	-0.369963	0.708421	0.358142	-0.358701	0.619674	0.318352	-0.413134	0.577186	0.220984	-0.333572	0.814599	0.759714	-0.481442	0.84025	0.64608	-0.460628	0.754228	0.554689	-0.438116	0.600006	0.0618887	-0.298257	0.909321	1.33417	-0.580213	0.856763	1.26727	-0.575213	0.918049	1.23989	-0.62811	0.898213	1.45009	-0.187935	0.913456	0.973327	-0.209955	0.738744	0.454472	-0.269595	0.798005	1.09192	-0.0913817	0.704749	1.18294	-0.0436375	0.736262	1.05685	-0.0779216	0.634248	1.27584	-0.061051	0.617146	1.26218	-0.135208	0.791031	0.28176	-0.177799	0.741142	1.0196	-0.270759	1.05313	0.509214	-0.237121	0.967526	0.497604	-0.189591	0.883351	0.425893	-0.250685	0.958996	0.788661	-0.139548	1.06269	0.768993	-0.153888	1.08013	0.667003	-0.161682	0.837428	0.256394	-0.279865	0.79322	1.38866	-0.106279	0.718115	1.36586	-0.1551	0.697897	1.31119	-0.0794054
58	1.34	0.871494	1.48484	-0.338869	1.00021	1.37715	-0.303956	0.938954	1.45309	-0.480319	0.894786	0.958376	-0.451627	0.391739	0.189368	-0.320845	1.0942	1.19353	-0.475924	1.0173	1.19752	-0.598004	1.12597	1.15541	-0.525577	0.922137	1.16552	-0.663541	0.883869	1.1292	-0.607993	0.506097	0.045818	-0.400462	0.743506	1.02373	-0.369358	0.681283	0.368819	-0.364489	0.59104	0.331578	-0.418425	0.550763	0.231367	-0.340072	0.805427	0.7671	-0.481183	0.825617	0.652743	-0.462599	0.734324	0.565499	-0.441289	0.56209	0.0614823	-0.299136	0.913251	1.34176	-0.579167	0.862035	1.27488	-0.576177	0.926446	1.2477	-0.626922	0.896799	1.45666	-0.187313	0.916235	0.980356	-0.210615	0.766005	0.42495	-0.272013	0.787872	1.10169	-0.0952208	0.69538	1.19441	-0.0490836	0.725021	1.06764	-0.0831245	0.627495	1.2889	-0.0677861	0.612123	1.27607	-0.142655	0.839036	0.258765	-0.182485	0.743688	1.02755	-0.269756	1.0727	0.514955	-0.238483	0.988724	0.494094	-0.191642	0.91315	0.413317	-0.252827	0.964444	0.801196	-0.139236	1.06797	0.782901	-0.154867	1.08754	0.680888	-0.16302	0.888617	0.240561	-0.283852	0.790449	1.39851	-0.107983	0.716868	1.37715	-0.159506	0.692896	1.3227	-0.0843064
59	1.35	0.871928	1.49099	-0.338482	1.0002	1.38441	-0.301964	0.940463	1.46051	-0.4785	0.895981	0.962783	-0.451613	0.372093	0.206861	-0.327191	1.09608	1.2105	-0.470553	1.0232	1.20862	-0.594697	1.13105	1.17164	-0.517263	0.930755	1.17239	-0.661378	0.891669	1.1357	-0.606692	0.467782	0.0476621	-0.401297	0.745891	1.02954	-0.36912	0.656649	0.380461	-0.371651	0.564108	0.34618	-0.423912	0.52754	0.242094	-0.348707	0.798001	0.774557	-0.481027	0.812464	0.659649	-0.464415	0.715899	0.577357	-0.444549	0.525898	0.062624	-0.300837	0.917329	1.34951	-0.578263	0.86729	1.2824	-0.576615	0.933256	1.25528	-0.625087	0.895724	1.46325	-0.186928	0.91881	0.987895	-0.210588	0.796028	0.395079	-0.274772	0.779305	1.11126	-0.0990761	0.687555	1.20565	-0.0545135	0.71569	1.07834	-0.0880853	0.622057	1.30155	-0.0745269	0.608323	1.28931	-0.149963	0.889067	0.237912	-0.187869	0.746558	1.03544	-0.269207	1.09072	0.519384	-0.24015	1.00983	0.488868	-0.193862	0.94377	0.400549	-0.255919	0.969302	0.813498	-0.139172	1.07237	0.79467	-0.155835	1.09278	0.692548	-0.16456	0.940176	0.227128	-0.288979	0.788502	1.40798	-0.109204	0.71658	1.38818	-0.163415	0.689063	1.33385	-0.089187
60	1.36	0.872265	1.49668	-0.338265	1.00028	1.3913	-0.300313	0.94193	1.46749	-0.476814	0.897982	0.967056	-0.450729	0.355619	0.225751	-0.335781	1.09695	1.22619	-0.46655	1.02812	1.21918	-0.591857	1.13484	1.18714	-0.509402	0.938042	1.17901	-0.659155	0.898902	1.14194	-0.604934	0.431105	0.0524839	-0.402469	0.7485	1.03546	-0.369135	0.634837	0.392385	-0.379022	0.539483	0.36149	-0.429101	0.506811	0.253185	-0.358188	0.791852	0.781458	-0.481018	0.800061	0.666346	-0.4662	0.699049	0.58947	-0.447102	0.49206	0.0660878	-0.303711	0.921724	1.35718	-0.577479	0.87229	1.28973	-0.57672	0.938583	1.26236	-0.622866	0.89511	1.46945	-0.186977	0.921172	0.995267	-0.210111	0.828462	0.365202	-0.277707	0.772227	1.12051	-0.102864	0.681157	1.21647	-0.0597978	0.708404	1.08881	-0.0930577	0.617781	1.31349	-0.081069	0.605678	1.30164	-0.156999	0.940567	0.219329	-0.193945	0.749255	1.04246	-0.269065	1.10706	0.52251	-0.242052	1.03067	0.482167	-0.196272	0.974826	0.387837	-0.259584	0.973174	0.824579	-0.139224	1.07568	0.804021	-0.156705	1.0958	0.701626	-0.166701	0.991835	0.216423	-0.295236	0.787183	1.41688	-0.110067	0.716923	1.39859	-0.166904	0.686155	1.34441	-0.0939072
